<svg xmlns="http://www.w3.org/2000/svg" viewBox="0 0 448 512">
    <style>
        path { fill: #7f8c8d }
        .st0 { opacity: 0.7 }
    </style>

    <path class="st0" d="M400,190.67H0V464a48,48,0,0,0,48,48H400a48,48,0,0,0,48-48V190.67ZM129.67,434.33a12,12,0,0,1-12,12h-40a12,12,0,0,1-12-12v-40a12,12,0,0,1,12-12h40a12,12,0,0,1,12,12Zm0-126.33a12,12,0,0,1-12,12h-40a12,12,0,0,1-12-12V268a12,12,0,0,1,12-12h40a12,12,0,0,1,12,12ZM256,434.33a12,12,0,0,1-12,12H204a12,12,0,0,1-12-12v-40a12,12,0,0,1,12-12h40a12,12,0,0,1,12,12Zm0-127.66a12,12,0,0,1-12,12H204a12,12,0,0,1-12-12v-40a12,12,0,0,1,12-12h40a12,12,0,0,1,12,12ZM382.67,434.33a12,12,0,0,1-12,12h-40a12,12,0,0,1-12-12v-40a12,12,0,0,1,12-12h40a12,12,0,0,1,12,12Zm0-127.66a12,12,0,0,1-12,12h-40a12,12,0,0,1-12-12v-40a12,12,0,0,1,12-12h40a12,12,0,0,1,12,12Z"/>
    <path class="st0" d="M148,0H108A12,12,0,0,0,96,12V116a12,12,0,0,0,12,12h40a12,12,0,0,0,12-12V12A12,12,0,0,0,148,0Z"/>
    <path class="st0" d="M340,0H300a12,12,0,0,0-12,12V116a12,12,0,0,0,12,12h40a12,12,0,0,0,12-12V12A12,12,0,0,0,340,0Z"/>
    <path d="M400,64H352v52a12,12,0,0,1-12,12H300a12,12,0,0,1-12-12V64H160v52a12,12,0,0,1-12,12H108a12,12,0,0,1-12-12V64H48A48,48,0,0,0,0,112v78.67H448V112A48,48,0,0,0,400,64Z"/>
</svg>