<svg xmlns="http://www.w3.org/2000/svg" viewBox="0 0 9.8 8.7"> 
    <style> 
        path { fill: white; }
        path.st0 { opacity:0.7; } 
        path.st1 { opacity:1;  } 
    </style> 

    <path class="st0" d="M9.6,1L8.8,0.2c-0.3-0.3-0.7-0.3-0.9,0L7.2,0.8C7.2,0.9,7.2,1,7.2,1l1.5,1.5c0.1,0.1,0.2,0.1,0.2,0L9.6,2 C9.9,1.7,9.9,1.3,9.6,1z M6.5,5.9v1.7H1.1V2.2H5c0.1,0,0.1,0,0.1-0.1l0.7-0.7c0.1-0.1,0-0.3-0.1-0.3H0.8C0.4,1.1,0,1.5,0,1.9v6 c0,0.5,0.4,0.8,0.8,0.8h6c0.5,0,0.8-0.4,0.8-0.8V5.2c0-0.2-0.2-0.3-0.3-0.1L6.6,5.7C6.5,5.8,6.5,5.8,6.5,5.9z"/> 
    <path class="st1" d="M6.8,1.4l1.5,1.5c0.1,0.1,0.1,0.2,0,0.2L4.7,6.9L3.1,7.1c-0.2,0-0.4-0.2-0.4-0.4l0.2-1.6l3.7-3.7 C6.7,1.3,6.8,1.3,6.8,1.4L6.8,1.4z"/>
</svg>